<?xml version="1.0" encoding="UTF-8" standalone="no"?>
<svg
   xmlns:dc="http://purl.org/dc/elements/1.1/"
   xmlns:cc="http://creativecommons.org/ns#"
   xmlns:rdf="http://www.w3.org/1999/02/22-rdf-syntax-ns#"
   xmlns:svg="http://www.w3.org/2000/svg"
   xmlns="http://www.w3.org/2000/svg"
   xmlns:sodipodi="http://sodipodi.sourceforge.net/DTD/sodipodi-0.dtd"
   xmlns:inkscape="http://www.inkscape.org/namespaces/inkscape"
   width="728"
   height="99"
   viewBox="0 0 192.61666 26.193751"
   version="1.1"
   id="svg8"
   inkscape:version="1.0.2 (e86c870879, 2021-01-15)"
   sodipodi:docname="warehouse.svg">
  <defs
     id="defs2" />
  <sodipodi:namedview
     id="base"
     pagecolor="#ffffff"
     bordercolor="#666666"
     borderopacity="1.0"
     inkscape:pageopacity="0.0"
     inkscape:pageshadow="2"
     inkscape:zoom="1.4"
     inkscape:cx="373.03569"
     inkscape:cy="-73.038567"
     inkscape:document-units="mm"
     inkscape:current-layer="layer1"
     inkscape:document-rotation="0"
     showgrid="false"
     units="px"
     inkscape:window-width="1920"
     inkscape:window-height="1171"
     inkscape:window-x="4480"
     inkscape:window-y="120"
     inkscape:window-maximized="1" />
  <metadata
     id="metadata5">
    <rdf:RDF>
      <cc:Work
         rdf:about="">
        <dc:format>image/svg+xml</dc:format>
        <dc:type
           rdf:resource="http://purl.org/dc/dcmitype/StillImage" />
        <dc:title></dc:title>
      </cc:Work>
    </rdf:RDF>
  </metadata>
  <g
     inkscape:label="Layer 1"
     inkscape:groupmode="layer"
     id="layer1">
    <g
       id="g1047">
      <path
         id="rect10"
         style="opacity:1;fill:#4d4d4d;fill-opacity:1;stroke:#666666;stroke-width:0.258;stroke-linecap:round;stroke-linejoin:round;stroke-miterlimit:4;stroke-dasharray:0.0258, 0.02580000000000000;stroke-dashoffset:0;stroke-opacity:1"
         d="M 13.004785,0.9405112 1.6003129,12.344466 H 4.3159094 V 25.253239 H 6.8687253 V 14.258045 H 19.141878 v 10.995194 h 2.552815 V 12.344466 h 2.714563 z M 7.7508418,10.502201 h 4.4488242 v 2.222087 H 7.7508418 Z m 6.0590622,0 h 4.448824 v 2.222087 h -4.448824 z" />
      <rect
         style="opacity:1;fill:#4d4d4d;fill-opacity:1;stroke:#666666;stroke-width:0.283001;stroke-linecap:round;stroke-linejoin:round;stroke-miterlimit:4;stroke-dasharray:0.0283001, 0.02830010000000000;stroke-dashoffset:0;stroke-opacity:1"
         id="rect55"
         width="3.6295543"
         height="3.6295543"
         x="7.522861"
         y="21.611296" />
      <rect
         style="opacity:1;fill:#4d4d4d;fill-opacity:1;stroke:#666666;stroke-width:0.283001;stroke-linecap:round;stroke-linejoin:round;stroke-miterlimit:4;stroke-dasharray:0.0283001, 0.02830010000000000;stroke-dashoffset:0;stroke-opacity:1"
         id="rect55-6"
         width="3.6295543"
         height="3.6295543"
         x="11.681581"
         y="21.611296" />
      <rect
         style="opacity:1;fill:#4d4d4d;fill-opacity:1;stroke:#666666;stroke-width:0.283001;stroke-linecap:round;stroke-linejoin:round;stroke-miterlimit:4;stroke-dasharray:0.0283001, 0.02830010000000000;stroke-dashoffset:0;stroke-opacity:1"
         id="rect55-6-7"
         width="3.6295543"
         height="3.6295543"
         x="7.522861"
         y="17.452574" />
    </g>
    <g
       id="g1041"
       transform="translate(0,3.5487035)">
      <path
         d="m 27.681963,5.0546359 h 4.067973 L 34.594209,17.01602 37.416435,5.0546359 h 4.090021 L 44.328681,17.01602 47.172955,5.0546359 h 4.0349 L 47.327295,21.513941 H 42.432499 L 39.444909,9.0013413 36.490392,21.513941 h -4.894797 z"
         style="font-style:normal;font-variant:normal;font-weight:bold;font-stretch:normal;font-size:22.5778px;line-height:19.2424px;font-family:'DejaVu Sans';-inkscape-font-specification:'DejaVu Sans Bold';font-variant-ligatures:normal;font-variant-caps:normal;font-variant-numeric:normal;font-feature-settings:normal;text-align:start;letter-spacing:0px;word-spacing:0px;writing-mode:lr-tb;text-anchor:start;fill:#1a1a1a;fill-opacity:1;stroke:none;stroke-width:0.264583px;stroke-linecap:butt;stroke-linejoin:miter;stroke-opacity:1"
         id="path944" />
      <path
         d="m 58.539026,15.957685 q -1.234723,0 -1.863109,0.418924 -0.617362,0.418924 -0.617362,1.234724 0,0.749653 0.496094,1.179602 0.507119,0.418924 1.400089,0.418924 1.113456,0 1.874133,-0.793751 0.760678,-0.804775 0.760678,-2.006426 v -0.451997 z m 6.030302,-1.488283 v 7.044539 h -3.979779 v -1.830037 q -0.793751,1.124481 -1.785939,1.642623 -0.992189,0.507119 -2.414325,0.507119 -1.918232,0 -3.119882,-1.113456 -1.190626,-1.12448 -1.190626,-2.91042 0,-2.17179 1.488282,-3.186027 1.499308,-1.014237 4.696359,-1.014237 h 2.326131 v -0.308681 q 0,-0.937067 -0.738629,-1.367015 -0.738629,-0.440973 -2.304082,-0.440973 -1.267797,0 -2.359204,0.253559 -1.091407,0.253559 -2.028474,0.760678 V 9.4974355 q 1.267796,-0.3086808 2.546617,-0.4630213 1.278821,-0.1653647 2.557641,-0.1653647 3.340368,0 4.817627,1.3229175 1.488283,1.311894 1.488283,4.277435 z"
         style="font-style:normal;font-variant:normal;font-weight:bold;font-stretch:normal;font-size:22.5778px;line-height:19.2424px;font-family:'DejaVu Sans';-inkscape-font-specification:'DejaVu Sans Bold';font-variant-ligatures:normal;font-variant-caps:normal;font-variant-numeric:normal;font-feature-settings:normal;text-align:start;letter-spacing:0px;word-spacing:0px;writing-mode:lr-tb;text-anchor:start;fill:#4d4d4d;fill-opacity:1;stroke:none;stroke-width:0.264583px;stroke-linecap:butt;stroke-linejoin:miter;stroke-opacity:1"
         id="path946" />
      <path
         d="m 77.412656,12.529123 q -0.518143,-0.242535 -1.036286,-0.352778 -0.507118,-0.121268 -1.025261,-0.121268 -1.521356,0 -2.34818,0.981164 -0.815799,0.97014 -0.815799,2.789152 v 5.688548 H 68.240425 V 9.166706 h 3.946705 v 2.028474 q 0.760678,-1.2126745 1.741842,-1.7638904 0.992189,-0.5622401 2.370228,-0.5622401 0.198438,0 0.429948,0.022049 0.231511,0.011024 0.672484,0.066146 z"
         style="font-style:normal;font-variant:normal;font-weight:bold;font-stretch:normal;font-size:22.5778px;line-height:19.2424px;font-family:'DejaVu Sans';-inkscape-font-specification:'DejaVu Sans Bold';font-variant-ligatures:normal;font-variant-caps:normal;font-variant-numeric:normal;font-feature-settings:normal;text-align:start;letter-spacing:0px;word-spacing:0px;writing-mode:lr-tb;text-anchor:start;fill:#4d4d4d;fill-opacity:1;stroke:none;stroke-width:0.264583px;stroke-linecap:butt;stroke-linejoin:miter;stroke-opacity:1"
         id="path948" />
      <path
         d="m 91.70017,15.30725 v 1.124481 h -9.227353 q 0.143316,1.389064 1.003213,2.083596 0.859897,0.694532 2.403301,0.694532 1.245748,0 2.546617,-0.363803 1.311894,-0.374827 2.689934,-1.12448 v 3.042711 q -1.400089,0.529167 -2.800177,0.793751 -1.400088,0.275608 -2.800176,0.275608 -3.351393,0 -5.214502,-1.697745 -1.852085,-1.708769 -1.852085,-4.784553 0,-3.020663 1.819012,-4.751481 1.830036,-1.7308175 5.027088,-1.7308175 2.91042,0 4.652262,1.7528665 1.752866,1.752866 1.752866,4.685334 z m -4.056948,-1.311893 q 0,-1.124481 -0.661459,-1.807988 -0.650435,-0.694532 -1.708769,-0.694532 -1.146529,0 -1.86311,0.650435 -0.71658,0.63941 -0.89297,1.852085 z"
         style="font-style:normal;font-variant:normal;font-weight:bold;font-stretch:normal;font-size:22.5778px;line-height:19.2424px;font-family:'DejaVu Sans';-inkscape-font-specification:'DejaVu Sans Bold';font-variant-ligatures:normal;font-variant-caps:normal;font-variant-numeric:normal;font-feature-settings:normal;text-align:start;letter-spacing:0px;word-spacing:0px;writing-mode:lr-tb;text-anchor:start;fill:#4d4d4d;fill-opacity:1;stroke:none;stroke-width:0.264583px;stroke-linecap:butt;stroke-linejoin:miter;stroke-opacity:1"
         id="path950" />
      <path
         d="m 107.10114,13.995357 v 7.518584 h -3.96875 v -1.223699 -4.508946 q 0,-1.620574 -0.0772,-2.226912 -0.0662,-0.606337 -0.24254,-0.89297 -0.23151,-0.385851 -0.62839,-0.595313 -0.39687,-0.220486 -0.90399,-0.220486 -1.23472,0 -1.940279,0.959116 -0.705557,0.948091 -0.705557,2.634811 v 6.074399 H 94.687759 V 4.3601039 h 3.946705 v 6.6145901 q 0.89297,-1.0803831 1.896186,-1.5875016 1.00321,-0.5181429 2.21588,-0.5181429 2.13872,0 3.24115,1.3118935 1.11346,1.311894 1.11346,3.814414 z"
         style="font-style:normal;font-variant:normal;font-weight:bold;font-stretch:normal;font-size:22.5778px;line-height:19.2424px;font-family:'DejaVu Sans';-inkscape-font-specification:'DejaVu Sans Bold';font-variant-ligatures:normal;font-variant-caps:normal;font-variant-numeric:normal;font-feature-settings:normal;text-align:start;letter-spacing:0px;word-spacing:0px;writing-mode:lr-tb;text-anchor:start;fill:#4d4d4d;fill-opacity:1;stroke:none;stroke-width:0.264583px;stroke-linecap:butt;stroke-linejoin:miter;stroke-opacity:1"
         id="path952" />
      <path
         d="m 116.63718,11.691275 q -1.3119,0 -2.00643,0.948091 -0.68351,0.937067 -0.68351,2.711982 0,1.774915 0.68351,2.723006 0.69453,0.937067 2.00643,0.937067 1.28984,0 1.97335,-0.937067 0.68351,-0.948091 0.68351,-2.723006 0,-1.774915 -0.68351,-2.711982 -0.68351,-0.948091 -1.97335,-0.948091 z m 0,-2.8222255 q 3.18602,0 4.97196,1.7197935 1.79697,1.719793 1.79697,4.762505 0,3.042711 -1.79697,4.762505 -1.78594,1.719793 -4.97196,1.719793 -3.19706,0 -5.00504,-1.719793 -1.79697,-1.719794 -1.79697,-4.762505 0,-3.042712 1.79697,-4.762505 1.80798,-1.7197935 5.00504,-1.7197935 z"
         style="font-style:normal;font-variant:normal;font-weight:bold;font-stretch:normal;font-size:22.5778px;line-height:19.2424px;font-family:'DejaVu Sans';-inkscape-font-specification:'DejaVu Sans Bold';font-variant-ligatures:normal;font-variant-caps:normal;font-variant-numeric:normal;font-feature-settings:normal;text-align:start;letter-spacing:0px;word-spacing:0px;writing-mode:lr-tb;text-anchor:start;fill:#4d4d4d;fill-opacity:1;stroke:none;stroke-width:0.264583px;stroke-linecap:butt;stroke-linejoin:miter;stroke-opacity:1"
         id="path954" />
      <path
         d="M 126.14014,16.707339 V 9.166706 h 3.96875 v 1.234724 q 0,1.003212 -0.011,2.524568 -0.011,1.510331 -0.011,2.01745 0,1.488283 0.0772,2.149742 0.0772,0.650434 0.26459,0.948091 0.24253,0.385851 0.62838,0.595313 0.39688,0.209462 0.904,0.209462 1.23472,0 1.94028,-0.948091 0.70555,-0.948091 0.70555,-2.634812 V 9.166706 h 3.94671 v 12.347235 h -3.94671 v -1.78594 q -0.89297,1.080384 -1.89618,1.598526 -0.99219,0.507119 -2.19384,0.507119 -2.13872,0 -3.2632,-1.311894 -1.11345,-1.311893 -1.11345,-3.814413 z"
         style="font-style:normal;font-variant:normal;font-weight:bold;font-stretch:normal;font-size:22.5778px;line-height:19.2424px;font-family:'DejaVu Sans';-inkscape-font-specification:'DejaVu Sans Bold';font-variant-ligatures:normal;font-variant-caps:normal;font-variant-numeric:normal;font-feature-settings:normal;text-align:start;letter-spacing:0px;word-spacing:0px;writing-mode:lr-tb;text-anchor:start;fill:#4d4d4d;fill-opacity:1;stroke:none;stroke-width:0.264583px;stroke-linecap:butt;stroke-linejoin:miter;stroke-opacity:1"
         id="path956" />
      <path
         d="m 151.99216,9.5525571 v 2.9986139 q -1.2678,-0.529167 -2.4474,-0.793751 -1.1796,-0.264583 -2.22692,-0.264583 -1.12448,0 -1.67569,0.286632 -0.54019,0.275608 -0.54019,0.859897 0,0.474045 0.4079,0.727605 0.41892,0.253559 1.48828,0.374826 l 0.69453,0.09922 q 3.03169,0.385851 4.079,1.267797 1.04731,0.881945 1.04731,2.767103 0,1.973353 -1.45521,2.965541 -1.45521,0.992189 -4.34358,0.992189 -1.2237,0 -2.53559,-0.198438 -1.30087,-0.187413 -2.67891,-0.573264 V 18.06333 q 1.1796,0.573264 2.41432,0.859896 1.24575,0.286633 2.52457,0.286633 1.15755,0 1.74184,-0.319706 0.58429,-0.319705 0.58429,-0.948091 0,-0.529167 -0.4079,-0.782726 -0.39687,-0.264584 -1.59852,-0.4079 l -0.69454,-0.0882 q -2.63481,-0.330729 -3.69314,-1.223699 -1.05834,-0.892969 -1.05834,-2.711982 0,-1.962328 1.34497,-2.9104193 1.34497,-0.9480912 4.12309,-0.9480912 1.09141,0 2.29306,0.1653647 1.20165,0.1653648 2.61277,0.5181429 z"
         style="font-style:normal;font-variant:normal;font-weight:bold;font-stretch:normal;font-size:22.5778px;line-height:19.2424px;font-family:'DejaVu Sans';-inkscape-font-specification:'DejaVu Sans Bold';font-variant-ligatures:normal;font-variant-caps:normal;font-variant-numeric:normal;font-feature-settings:normal;text-align:start;letter-spacing:0px;word-spacing:0px;writing-mode:lr-tb;text-anchor:start;fill:#4d4d4d;fill-opacity:1;stroke:none;stroke-width:0.264583px;stroke-linecap:butt;stroke-linejoin:miter;stroke-opacity:1"
         id="path958" />
      <path
         d="m 168.10971,15.30725 v 1.124481 h -9.22735 q 0.14331,1.389064 1.00321,2.083596 0.8599,0.694532 2.4033,0.694532 1.24575,0 2.54662,-0.363803 1.31189,-0.374827 2.68993,-1.12448 v 3.042711 q -1.40009,0.529167 -2.80018,0.793751 -1.40008,0.275608 -2.80017,0.275608 -3.3514,0 -5.2145,-1.697745 -1.85209,-1.708769 -1.85209,-4.784553 0,-3.020663 1.81901,-4.751481 1.83004,-1.7308175 5.02709,-1.7308175 2.91042,0 4.65226,1.7528665 1.75287,1.752866 1.75287,4.685334 z m -4.05695,-1.311893 q 0,-1.124481 -0.66146,-1.807988 -0.65043,-0.694532 -1.70877,-0.694532 -1.14653,0 -1.86311,0.650435 -0.71658,0.63941 -0.89297,1.852085 z"
         style="font-style:normal;font-variant:normal;font-weight:bold;font-stretch:normal;font-size:22.5778px;line-height:19.2424px;font-family:'DejaVu Sans';-inkscape-font-specification:'DejaVu Sans Bold';font-variant-ligatures:normal;font-variant-caps:normal;font-variant-numeric:normal;font-feature-settings:normal;text-align:start;letter-spacing:0px;word-spacing:0px;writing-mode:lr-tb;text-anchor:start;fill:#4d4d4d;fill-opacity:1;stroke:none;stroke-width:0.264583px;stroke-linecap:butt;stroke-linejoin:miter;stroke-opacity:1"
         id="path960" />
      <rect
         style="opacity:1;fill:#4d4d4d;fill-opacity:1;stroke:none;stroke-width:0.258;stroke-linecap:round;stroke-linejoin:round;stroke-miterlimit:4;stroke-dasharray:0.0258, 0.0258;stroke-dashoffset:0;stroke-opacity:1"
         id="rect972"
         width="8.2864523"
         height="2.3079143"
         x="170.18488"
         y="18.447289"
         ry="0.91375583" />
      <rect
         style="fill:#4d4d4d;fill-opacity:1;stroke:none;stroke-width:0.269012;stroke-linecap:round;stroke-linejoin:round;stroke-miterlimit:4;stroke-dasharray:0.0269012, 0.0269012;stroke-dashoffset:0;stroke-opacity:1"
         id="rect972-5"
         width="9.0089149"
         height="2.3079143"
         x="172.60411"
         y="14.346824"
         ry="0.91375583" />
      <rect
         style="fill:#4d4d4d;fill-opacity:1;stroke:none;stroke-width:0.281395;stroke-linecap:round;stroke-linejoin:round;stroke-miterlimit:4;stroke-dasharray:0.0281395, 0.0281395;stroke-dashoffset:0;stroke-opacity:1"
         id="rect972-3"
         width="9.8573618"
         height="2.3079143"
         x="174.96034"
         y="10.246358"
         ry="0.91375583" />
    </g>
  </g>
</svg>
